
<svg version="1.0" xmlns="http://www.w3.org/2000/svg" width="240.000000pt" height="459.000000pt" viewBox="0 0 240.000000 459.000000" preserveAspectRatio="xMidYMid meet"><g transform="translate(0.000000,459.000000) scale(0.100000,-0.100000)" fill="#000000" stroke="none">
<path d="M1162 4529 l-72 -50 0 -194 0 -194 -105 -63 -105 -63 -2 -199 -3 -199 -102 -61 -103 -60 0 -226 0 -226 -100 -59 -100 -58 0 -968 0 -968 -80 -48 -80 -48 0 -367 0 -368 385 0 385 0 5 23 c2 12 16 96 31 187 14 91 32 177 40 192 32 62 130 78 182 30 35 -33 33 -26 71 -235 16 -87 32 -161 36 -165 5 -5 514 -28 713 -31 l42 -1 0 368 0 367 -100 59 -100 58 0 957 0 957 -102 60 -103 61 -3 226 -2 227 -100 57 -99 58 -1 200 -1 200 -102 61 -102 62 -3 195 -2 195 -73 50 -73 51 -72 -50z m128 -240 c0 -134 -2 -139 -42 -118 -14 8 -23 8 -31 0 -6 -6 -17 -11 -24 -11 -10 0 -13 30 -13 129 0 128 0 130 26 150 l26 21 29 -21 29 -20 0 -130z m74 -305 l126 -75 0 -140 0 -140 -22 12 c-13 7 -50 29 -83 49 -33 20 -81 48 -106 62 l-46 27 -124 -74 c-68 -40 -128 -70 -132 -66 -4 4 -6 66 -5 137 l3 129 125 77 c69 43 128 78 132 78 4 0 63 -34 132 -76z m14 -424 c57 -35 106 -68 108 -75 3 -6 3 -68 2 -138 l-3 -126 -80 50 c-44 28 -100 61 -125 74 -53 27 -50 28 -208 -68 -51 -31 -94 -57 -97 -57 -2 0 -4 60 -4 134 l-1 133 62 39 c199 122 202 124 223 110 11 -7 67 -41 123 -76z m-498 -263 l0 -142 -45 -28 c-25 -15 -50 -27 -55 -27 -6 0 -10 59 -10 144 l0 144 48 30 c26 16 50 27 55 25 4 -2 7 -68 7 -146z m818 -51 c2 -101 -1 -146 -8 -146 -6 0 -31 12 -56 26 l-44 26 0 150 0 150 53 -31 52 -30 3 -145z m-208 -298 c0 -65 -2 -118 -5 -118 -2 0 -59 32 -125 71 -67 39 -128 68 -136 65 -8 -3 -64 -35 -124 -71 -61 -36 -115 -65 -120 -65 -7 0 -10 42 -8 116 l3 117 129 77 129 77 128 -76 129 -76 0 -117z m-610 -66 l0 -118 -55 -31 -55 -32 0 119 0 118 48 30 c26 17 50 31 55 31 4 1 7 -52 7 -117z m770 87 l50 -31 0 -119 0 -119 -52 30 -53 30 -3 120 c-1 66 0 120 3 120 2 0 27 -14 55 -31z m-984 -385 c-2 -6 -25 -23 -50 -37 l-47 -26 3 151 3 152 45 26 45 26 3 -140 c1 -77 1 -145 -2 -152z m1232 87 l3 -153 -38 23 c-21 13 -46 28 -56 33 -16 10 -18 26 -16 151 0 77 3 143 5 147 3 4 26 -5 52 -21 l47 -27 3 -153z m-425 -11 l226 -135 1 -132 c0 -73 -4 -133 -9 -133 -4 0 -107 59 -227 131 -120 73 -224 132 -229 132 -11 0 -251 -139 -379 -220 -38 -23 -73 -43 -78 -43 -4 0 -8 60 -8 133 l0 132 228 137 c125 75 232 136 238 135 6 -1 113 -63 237 -137z m-803 -335 l0 -134 -43 -26 c-24 -14 -47 -25 -50 -25 -4 0 -7 60 -7 134 l0 135 43 24 c23 14 45 25 50 26 4 1 7 -60 7 -134z m1181 108 l49 -28 0 -132 c0 -73 -2 -133 -5 -133 -11 0 -70 32 -87 48 -15 13 -18 34 -18 144 0 70 3 128 6 128 3 0 28 -12 55 -27z m-484 -189 c59 -37 132 -82 161 -100 l52 -34 0 -165 c0 -110 -4 -165 -11 -165 -5 0 -70 35 -142 78 -73 44 -142 84 -154 91 -20 10 -39 2 -174 -79 -83 -49 -155 -90 -160 -90 -5 0 -9 74 -9 168 l0 167 83 50 c45 27 116 71 157 97 41 27 78 48 82 48 4 0 55 -30 115 -66z m-559 -321 l-3 -227 -110 -67 c-60 -37 -113 -68 -117 -68 -5 -1 -8 102 -8 228 l0 229 113 66 c61 36 115 66 120 66 4 0 6 -102 5 -227z m1000 147 l92 -54 0 -219 0 -219 -37 22 c-21 12 -66 39 -100 59 l-63 36 0 218 c0 120 3 217 8 215 4 -1 49 -28 100 -58z m-308 -400 l75 -46 1 -197 c1 -109 -2 -199 -5 -201 -3 -3 -76 38 -161 89 -124 75 -158 91 -173 83 -10 -5 -81 -47 -158 -94 -77 -46 -142 -84 -145 -84 -2 0 -4 92 -4 204 l0 203 161 96 162 95 86 -51 c47 -28 120 -71 161 -97z m-692 -326 l-3 -206 -62 -35 -63 -35 0 205 0 205 58 35 c31 19 60 36 65 36 4 1 6 -92 5 -205z m1005 138 c15 -13 17 -37 17 -214 0 -109 -2 -198 -4 -198 -3 0 -32 16 -65 35 l-61 36 0 205 0 206 48 -27 c26 -15 55 -35 65 -43z"/></g></svg>
