
<svg version="1.0" xmlns="http://www.w3.org/2000/svg" width="51.000000pt" height="51.000000pt" viewBox="0 0 51.000000 51.000000" preserveAspectRatio="xMidYMid meet">
<g transform="translate(0.000000,51.000000) scale(0.100000,-0.100000)" fill="#000000" stroke="none">
<path d="M183 500 c-18 -4 -45 -16 -60 -26 l-28 -19 35 -6 35 -6 -42 -2 c-29 -1 -51 -9 -73 -27 -27 -23 -31 -32 -28 -67 2 -25 10 -44 21 -51 15 -9 24 -4 57 32 47 50 81 55 121 16 l28 -27 31 27 c44 36 81 34 115 -6 39 -47 53 -53 76 -32 52 47 -9 132 -98 135 l-38 2 35 6 35 6 -26 18 c-52 35 -123 45 -196 27z m97 -95 c-13 -14 -27 -25 -32 -25 -9 0 42 49 51 50 3 0 -6 -11 -19 -25z"/>
<path d="M137 353 c-4 -3 -8 -22 -8 -42 -1 -24 -3 -28 -6 -13 l-4 23 -30 -25 c-24 -21 -34 -24 -55 -16 -14 6 -27 10 -30 10 -10 0 -3 -48 9 -65 12 -16 18 -16 47 -6 18 6 35 9 38 6 4 -4 -22 -17 -60 -29 -22 -7 -24 -34 -3 -42 44 -17 95 29 74 67 -8 15 -8 24 0 32 8 8 11 4 11 -15 0 -15 9 -32 23 -41 18 -13 19 -16 5 -16 -24 -1 -23 -33 1 -55 12 -11 31 -16 53 -14 28 2 34 7 36 31 2 17 -2 29 -12 33 -25 9 -7 33 25 32 37 -1 45 -13 25 -34 -43 -42 17 -85 75 -54 21 12 27 60 7 60 -6 0 -2 10 10 23 12 13 22 29 22 37 0 10 4 9 18 -3 9 -8 30 -19 46 -23 32 -8 46 6 46 48 0 25 -2 26 -35 21 -26 -4 -41 -1 -55 12 -19 18 -20 17 -20 -10 0 -41 -13 -22 -19 28 -5 37 -9 42 -34 45 -20 2 -35 -5 -57 -27 l-30 -29 -29 29 c-27 27 -69 38 -84 22z m54 -73 c25 -14 24 -30 -1 -30 -11 0 -20 2 -20 4 0 2 -3 11 -6 20 -7 19 0 20 27 6z m146 -15 c-7 -16 -37 -21 -37 -5 0 10 32 31 39 25 2 -2 1 -11 -2 -20z"/>
<path d="M397 223 c-25 -24 13 -73 57 -73 23 0 27 4 24 22 -2 13 -11 24 -23 26 -11 2 -27 10 -36 18 -9 8 -19 11 -22 7z"/>
<path d="M90 145 c-7 -8 -19 -15 -27 -15 -26 0 -9 -35 18 -38 31 -4 53 20 44 48 -8 24 -18 25 -35 5z"/>
<path d="M382 143 c-14 -26 3 -53 33 -53 14 0 29 8 35 20 9 16 8 20 -6 20 -10 0 -25 7 -35 16 -16 14 -18 14 -27 -3z"/>
<path d="M117 85 c-25 -35 -13 -48 35 -40 35 6 39 5 36 -12 -4 -24 39 -32 48 -9 6 17 -26 48 -74 74 -29 15 -23 16 -45 -13z"/>
<path d="M227 96 c-15 -12 -15 -15 -2 -26 16 -13 65 -6 65 10 0 8 -32 31 -42 30 -2 0 -11 -7 -21 -14z"/>
<path d="M334 96 c-11 -6 -28 -19 -37 -28 -9 -9 -21 -18 -27 -20 -17 -5 0 -38 19 -38 19 0 53 20 34 20 -7 0 -13 5 -13 11 0 8 13 10 37 6 52 -9 71 9 42 40 -25 26 -26 26 -55 9z"/>
</g>
</svg>
