    <svg class="main-logo" xmlns="http://www.w3.org/2000/svg" viewBox="0 0 50 50">
        <defs>
            <style>.cls-1{fill:#11131d;background-color none;}</style>
        </defs>
        <g id="Capa_2" data-name="Capa 2">
            <g id="Capa_1-2" data-name="Capa 1">
                <path class="cls-1" d="M23.06,9.8A7.35,7.35,0,0,1,25,12.28s0,0,0,0,0,0,0,0a7.35,7.35,0,0,1,1.9-2.48A14.47,14.47,0,0,1,32.7,6.52c2.57-.93,5-.92,7.65-1.15L38.9,4.25A20.28,20.28,0,0,0,37.07,3a19.9,19.9,0,0,0-3.72-1.72A26.7,26.7,0,0,0,25.13,0h-.26a26.7,26.7,0,0,0-8.22,1.29A19.9,19.9,0,0,0,12.93,3,20.28,20.28,0,0,0,11.1,4.25L9.65,5.37c2.65.23,5.08.22,7.65,1.15A14.47,14.47,0,0,1,23.06,9.8Z"/>
                <path class="cls-1" d="M8.56,19.49,10.49,17l0-.07c.2-.38,2.23-4,7.52-3.26l.07,0a11,11,0,0,1,6.25,5.38.46.46,0,0,0,.62.21.46.46,0,0,0,.62-.21,11,11,0,0,1,6.25-5.38l.07,0c5.29-.73,7.32,2.88,7.52,3.26l0,.07,1.93,2.51c2.87,3.84,5.49.8,5.49.8,3.22-3.28,1-7.39.8-7.8a.09.09,0,0,1,0-.07c-.91-2.72-5.76-5-6.22-5.24l-.08,0a13.57,13.57,0,0,0-15.93,6,.44.44,0,0,1-.43.21H25a.44.44,0,0,1-.43-.21,13.57,13.57,0,0,0-15.93-6l-.08,0c-.46.21-5.31,2.52-6.22,5.24a.09.09,0,0,1,0,.07c-.23.41-2.42,4.52.8,7.8C3.07,20.29,5.69,23.33,8.56,19.49Z"/>
                <path class="cls-1" d="M25,45c1.11-.06,2.44-.76,3.92-2.71,0,0-1.63-.26-3.92-3v-.09l0,0,0,0v.09c-2.29,2.7-3.92,3-3.92,3,1.48,2,2.81,2.65,3.92,2.71H25Z"/>
                <path class="cls-1" d="M5.29,29.17c8.49-2.26,6.09-10.34,6.09-10.34C6.48,27.18.46,21.45.46,21.45c-1.7,6.2,1.83,8.38,1.83,8.38C2.94,30.23,5.29,29.17,5.29,29.17Z"/>
                <path class="cls-1" d="M10.13,33c2.87-1.72,0-4.9,0-4.9A11.23,11.23,0,0,1,1.9,31.4c-.26,4.88,1.7,4.79,1.7,4.79C9,36.46,10.13,33,10.13,33Z"/>
                <path class="cls-1" d="M12.87,38.24a6.06,6.06,0,0,1-1.49-4l-1.91,2c-2.48,2.53-5,2-5,2C6.08,43.35,8,42.12,8,42.12,10.65,43,12.87,38.24,12.87,38.24Z"/>
                <path class="cls-1" d="M19,42.25c-3.24.49-5.36-3-5.36-3C11.3,44.15,9.47,44,9.47,44c.14,2.65,3.4,2.65,3.4,2.65,5.88-2.39,7.18.53,7.18.53l-2.61.53a5.42,5.42,0,0,0,3,2.12C23.84,50.91,24,46,24,46,20.45,46,19,42.25,19,42.25Z"/>
                <path class="cls-1" d="M37.52,16.84s-3-4.24-9,0c0,0-3,2.89-3.51,5.74-.5-2.85-3.51-5.74-3.51-5.74-6-4.24-9,0-9,0,1.48.63.52,5.43.52,5.43-2.09,3.32-1.57,5.23-1.57,5.23.13,2,4.71,4.58,4.71,4.58a5.64,5.64,0,0,1-3,.93c-.39,5.7,3,6.1,3,6.1,4.7,2.39,6.53-.26,6.53-.26,2.74-1.33.65-4.78.65-4.78-.47-1.06-2-1-2.45-1.75s1-2.53,1.72-3.16c.86-.82,1.38,0,1.77.82a3.65,3.65,0,0,0,.56.41l.06,0,0,0,0,0,.06,0a3.65,3.65,0,0,0,.56-.41c.39-.82.91-1.64,1.77-.82.68.63,2.22,2.28,1.72,3.16s-2,.69-2.45,1.75c0,0-2.09,3.45.65,4.78,0,0,1.83,2.65,6.53.26,0,0,3.43-.4,3-6.1a5.64,5.64,0,0,1-3-.93s4.58-2.54,4.71-4.58c0,0,.52-1.91-1.57-5.23C37,22.27,36,17.47,37.52,16.84ZM17,25.46,15.55,22s4.28-.44,5.49,3.45A4.47,4.47,0,0,1,17,25.46Zm16,0a4.47,4.47,0,0,1-4,0C30.17,21.57,34.45,22,34.45,22Z"/>
                <path class="cls-1" d="M49.54,21.45s-6,5.73-10.92-2.62c0,0-2.4,8.08,6.09,10.34,0,0,2.35,1.06,3,.66C47.71,29.83,51.24,27.65,49.54,21.45Z"/>
                <path class="cls-1" d="M39.87,28.11s-2.87,3.18,0,4.9c0,0,1.18,3.45,6.53,3.18,0,0,2,.09,1.7-4.79A11.23,11.23,0,0,1,39.87,28.11Z"/>
                <path class="cls-1" d="M40.53,36.21l-1.91-2a6.06,6.06,0,0,1-1.49,4S39.35,43,42,42.12c0,0,2,1.23,3.53-3.94C45.49,38.18,43,38.74,40.53,36.21Z"/>
                <path class="cls-1" d="M36.35,39.24s-2.12,3.5-5.36,3c0,0-1.44,3.76-5,3.76,0,0,.13,4.9,3.52,3.84a5.42,5.42,0,0,0,3-2.12L30,47.2s1.3-2.92,7.18-.53c0,0,3.26,0,3.4-2.65C40.53,44,38.7,44.15,36.35,39.24Z"/>
            </g>
        </g>
            </svg>