<svg xmlns="http://www.w3.org/2000/svg" viewBox="0 0 425.5 442.38">
    <defs>
        <style>.cls-1,.cls-2{fill:#93a6d1;}.cls-1{opacity:0.49;}</style>
    </defs>
<title>3Recurso 3</title>
<g id="Capa_2" data-name="Capa 2">
<g id="Capa_2-2" data-name="Capa 2">
<path class="cls-1" d="M208.87,51.62H390.75a0,0,0,0,1,0,0V220A215.63,215.63,0,0,1,175.13,435.63H-6.75a0,0,0,0,1,0,0V267.25A215.62,215.62,0,0,1,208.87,51.63Z" transform="translate(-51.62 435.63) rotate(-90)"/>
<path class="cls-1" d="M250.38,6.75H432.25a0,0,0,0,1,0,0V175.13A215.63,215.63,0,0,1,216.63,390.75H34.75a0,0,0,0,1,0,0V222.38A215.63,215.63,0,0,1,250.38,6.75Z" transform="translate(34.75 432.25) rotate(-90)"/>
<path class="cls-2" d="M234.12,24.88H416a0,0,0,0,1,0,0V193.25A215.63,215.63,0,0,1,200.38,408.88H18.5a0,0,0,0,1,0,0V240.5A215.62,215.62,0,0,1,234.12,24.88Z"/>
<circle class="cls-2" cx="20.81" cy="24.44" r="19.69"/>
<circle class="cls-2" cx="404.94" cy="417.69" r="19.69"/>
</g></g>
</svg>